HIERARCHY
ROOT Hips
{
	OFFSET 0.000000 97.167313 0.000000
	CHANNELS 6 Xposition Yposition Zposition Xrotation Yrotation Zrotation
	JOINT Spine
	{
		OFFSET 0.000000 13.784798 0.064400
		CHANNELS 3 Xrotation Yrotation Zrotation
		JOINT Spine1
		{
			OFFSET 0.000000 12.037903 0.404700
			CHANNELS 3 Xrotation Yrotation Zrotation
			JOINT Spine2
			{
				OFFSET 0.000000 17.795601 0.420200
				CHANNELS 3 Xrotation Yrotation Zrotation
				JOINT Neck
				{
					OFFSET 0.000000 39.131302 11.954600
					CHANNELS 3 Xrotation Yrotation Zrotation
					JOINT Head
					{
						OFFSET 0.000000 14.456192 15.627699
						CHANNELS 3 Xrotation Yrotation Zrotation
						JOINT HeadTop_End
						{
							OFFSET 0.000000 15.703506 7.603401
							CHANNELS 3 Xrotation Yrotation Zrotation
							End Site
							{
								OFFSET 0.000000 17.447403 0.000000
							}
						}
					}
				}
				JOINT LeftShoulder
				{
					OFFSET 17.399500 24.608795 1.168800
					CHANNELS 3 Xrotation Yrotation Zrotation
					JOINT LeftArm
					{
						OFFSET 18.980635 5.765305 1.818600
						CHANNELS 3 Xrotation Yrotation Zrotation
						JOINT LeftForeArm
						{
							OFFSET 49.290169 0.000000 0.000000
							CHANNELS 3 Xrotation Yrotation Zrotation
							JOINT LeftHand
							{
								OFFSET 31.562012 0.000000 0.000000
								CHANNELS 3 Xrotation Yrotation Zrotation
								JOINT LeftHandThumb1
								{
									OFFSET 6.133995 -4.388519 7.076070
									CHANNELS 3 Xrotation Yrotation Zrotation
									JOINT LeftHandThumb2
									{
										OFFSET 6.037666 -3.485840 3.485847
										CHANNELS 3 Xrotation Yrotation Zrotation
										JOINT LeftHandThumb3
										{
											OFFSET 6.496506 -3.750763 3.750761
											CHANNELS 3 Xrotation Yrotation Zrotation
											JOINT LeftHandThumb4
											{
												OFFSET 5.616882 -3.242905 3.242910
												CHANNELS 3 Xrotation Yrotation Zrotation
												End Site
												{
													OFFSET -1.254608 7.132141 0.375429
												}
											}
										}
									}
								}
								JOINT LeftHandPinky1
								{
									OFFSET 18.920792 -0.453171 -11.426712
									CHANNELS 3 Xrotation Yrotation Zrotation
									JOINT LeftHandPinky2
									{
										OFFSET 4.919586 0.000000 0.000000
										CHANNELS 3 Xrotation Yrotation Zrotation
										JOINT LeftHandPinky3
										{
											OFFSET 5.233047 0.000000 0.000000
											CHANNELS 3 Xrotation Yrotation Zrotation
											JOINT LeftHandPinky4
											{
												OFFSET 5.571716 0.000000 0.000000
												CHANNELS 3 Xrotation Yrotation Zrotation
												End Site
												{
													OFFSET -3.459808 4.342407 -0.466164
												}
											}
										}
									}
								}
								JOINT LeftHandRing1
								{
									OFFSET 22.726120 -0.094986 -6.500475
									CHANNELS 3 Xrotation Yrotation Zrotation
									JOINT LeftHandRing2
									{
										OFFSET 6.408615 0.000000 0.000000
										CHANNELS 3 Xrotation Yrotation Zrotation
										JOINT LeftHandRing3
										{
											OFFSET 6.150223 0.000000 0.000000
											CHANNELS 3 Xrotation Yrotation Zrotation
											JOINT LeftHandRing4
											{
												OFFSET 6.145386 0.000000 0.000000
												CHANNELS 3 Xrotation Yrotation Zrotation
												End Site
												{
													OFFSET -3.671402 4.923981 -0.202372
												}
											}
										}
									}
								}
								JOINT LeftHandMiddle1
								{
									OFFSET 23.373947 0.000000 0.000001
									CHANNELS 3 Xrotation Yrotation Zrotation
									JOINT LeftHandMiddle2
									{
										OFFSET 6.996567 0.000000 0.000000
										CHANNELS 3 Xrotation Yrotation Zrotation
										JOINT LeftHandMiddle3
										{
											OFFSET 7.015945 0.000000 0.000000
											CHANNELS 3 Xrotation Yrotation Zrotation
											JOINT LeftHandMiddle4
											{
												OFFSET 7.721573 0.000000 0.000000
												CHANNELS 3 Xrotation Yrotation Zrotation
												End Site
												{
													OFFSET -4.651108 6.158463 0.251582
												}
											}
										}
									}
								}
								JOINT LeftHandIndex1
								{
									OFFSET 21.310577 -0.490082 6.209344
									CHANNELS 3 Xrotation Yrotation Zrotation
									JOINT LeftHandIndex2
									{
										OFFSET 7.536453 0.000000 0.000000
										CHANNELS 3 Xrotation Yrotation Zrotation
										JOINT LeftHandIndex3
										{
											OFFSET 7.512344 0.000000 0.000000
											CHANNELS 3 Xrotation Yrotation Zrotation
											JOINT LeftHandIndex4
											{
												OFFSET 10.212402 0.000000 0.000001
												CHANNELS 3 Xrotation Yrotation Zrotation
												End Site
												{
													OFFSET -5.180801 8.690506 1.388433
												}
											}
										}
									}
								}
							}
						}
					}
				}
				JOINT RightShoulder
				{
					OFFSET -17.399500 24.608795 1.168800
					CHANNELS 3 Xrotation Yrotation Zrotation
					JOINT RightArm
					{
						OFFSET -18.980635 5.765305 1.818600
						CHANNELS 3 Xrotation Yrotation Zrotation
						JOINT RightForeArm
						{
							OFFSET -49.290169 0.000000 0.000000
							CHANNELS 3 Xrotation Yrotation Zrotation
							JOINT RightHand
							{
								OFFSET -31.562012 0.000000 0.000000
								CHANNELS 3 Xrotation Yrotation Zrotation
								JOINT RightHandThumb1
								{
									OFFSET -6.133995 -4.388519 7.076070
									CHANNELS 3 Xrotation Yrotation Zrotation
									JOINT RightHandThumb2
									{
										OFFSET -6.037666 -3.485840 3.485847
										CHANNELS 3 Xrotation Yrotation Zrotation
										JOINT RightHandThumb3
										{
											OFFSET -6.496506 -3.750763 3.750761
											CHANNELS 3 Xrotation Yrotation Zrotation
											JOINT RightHandThumb4
											{
												OFFSET -5.616882 -3.242905 3.242910
												CHANNELS 3 Xrotation Yrotation Zrotation
												End Site
												{
													OFFSET 1.254608 7.132141 0.375429
												}
											}
										}
									}
								}
								JOINT RightHandIndex1
								{
									OFFSET -21.310577 -0.490082 6.209344
									CHANNELS 3 Xrotation Yrotation Zrotation
									JOINT RightHandIndex2
									{
										OFFSET -7.536453 0.000000 0.000000
										CHANNELS 3 Xrotation Yrotation Zrotation
										JOINT RightHandIndex3
										{
											OFFSET -7.512344 0.000000 0.000000
											CHANNELS 3 Xrotation Yrotation Zrotation
											JOINT RightHandIndex4
											{
												OFFSET -10.212402 0.000000 0.000001
												CHANNELS 3 Xrotation Yrotation Zrotation
												End Site
												{
													OFFSET 5.180801 8.690506 1.388433
												}
											}
										}
									}
								}
								JOINT RightHandMiddle1
								{
									OFFSET -23.373947 0.000000 0.000001
									CHANNELS 3 Xrotation Yrotation Zrotation
									JOINT RightHandMiddle2
									{
										OFFSET -6.996567 0.000000 0.000000
										CHANNELS 3 Xrotation Yrotation Zrotation
										JOINT RightHandMiddle3
										{
											OFFSET -7.015945 0.000000 0.000000
											CHANNELS 3 Xrotation Yrotation Zrotation
											JOINT RightHandMiddle4
											{
												OFFSET -7.721573 0.000000 0.000000
												CHANNELS 3 Xrotation Yrotation Zrotation
												End Site
												{
													OFFSET 4.651108 6.158463 0.251582
												}
											}
										}
									}
								}
								JOINT RightHandRing1
								{
									OFFSET -22.726120 -0.094986 -6.500475
									CHANNELS 3 Xrotation Yrotation Zrotation
									JOINT RightHandRing2
									{
										OFFSET -6.408615 0.000000 0.000000
										CHANNELS 3 Xrotation Yrotation Zrotation
										JOINT RightHandRing3
										{
											OFFSET -6.150223 0.000000 0.000000
											CHANNELS 3 Xrotation Yrotation Zrotation
											JOINT RightHandRing4
											{
												OFFSET -6.145386 0.000000 0.000000
												CHANNELS 3 Xrotation Yrotation Zrotation
												End Site
												{
													OFFSET 3.671402 4.923981 -0.202372
												}
											}
										}
									}
								}
								JOINT RightHandPinky1
								{
									OFFSET -18.920792 -0.453171 -11.426712
									CHANNELS 3 Xrotation Yrotation Zrotation
									JOINT RightHandPinky2
									{
										OFFSET -4.919586 0.000000 0.000000
										CHANNELS 3 Xrotation Yrotation Zrotation
										JOINT RightHandPinky3
										{
											OFFSET -5.233047 0.000000 0.000000
											CHANNELS 3 Xrotation Yrotation Zrotation
											JOINT RightHandPinky4
											{
												OFFSET -5.571716 0.000000 0.000000
												CHANNELS 3 Xrotation Yrotation Zrotation
												End Site
												{
													OFFSET 3.459808 4.342407 -0.466164
												}
											}
										}
									}
								}
							}
						}
					}
				}
			}
		}
	}
	JOINT LeftUpLeg
	{
		OFFSET 19.899099 -7.885101 -3.429500
		CHANNELS 3 Xrotation Yrotation Zrotation
		JOINT LeftLeg
		{
			OFFSET 1.745560 -36.997807 10.304700
			CHANNELS 3 Xrotation Yrotation Zrotation
			JOINT LeftFoot
			{
				OFFSET -1.745558 -29.803308 -13.615400
				CHANNELS 3 Xrotation Yrotation Zrotation
				JOINT LeftToeBase
				{
					OFFSET 1.181900 -18.539904 15.226099
					CHANNELS 3 Xrotation Yrotation Zrotation
					JOINT LeftToe_End
					{
						OFFSET -0.863701 1.402801 16.534700
						CHANNELS 3 Xrotation Yrotation Zrotation
						End Site
						{
							OFFSET 0.000000 16.616566 0.000000
						}
					}
				}
			}
		}
	}
	JOINT RightUpLeg
	{
		OFFSET -19.899099 -7.885101 -3.429500
		CHANNELS 3 Xrotation Yrotation Zrotation
		JOINT RightLeg
		{
			OFFSET -1.745560 -36.997807 10.304700
			CHANNELS 3 Xrotation Yrotation Zrotation
			JOINT RightFoot
			{
				OFFSET 1.745558 -29.803308 -13.615400
				CHANNELS 3 Xrotation Yrotation Zrotation
				JOINT RightToeBase
				{
					OFFSET -1.181900 -18.539904 15.226099
					CHANNELS 3 Xrotation Yrotation Zrotation
					JOINT RightToe_End
					{
						OFFSET 0.863701 1.402801 16.534700
						CHANNELS 3 Xrotation Yrotation Zrotation
						End Site
						{
							OFFSET 0.000000 16.616566 0.000000
						}
					}
				}
			}
		}
	}
}
MOTION
Frames: 4
Frame Time: 0.033333
2.833408 82.652245 137.892044 37.825929 -14.482670 6.288697 26.264965 1.322265 -2.537550 5.048974 0.266995 4.616988 4.886697 1.078678 4.339686 -1.552970 8.451183 -12.632688 -14.635115 1.521239 0.666719 0.000002 -0.000000 0.000000 8.876265 -15.435287 22.490145 -68.216842 8.279266 -18.243229 9.343130 -64.121679 10.100866 -72.437810 -22.296613 11.391415 17.551558 -5.699201 -12.932281 10.850528 26.127692 8.644754 20.926870 51.115869 0.218843 -0.000001 0.000002 0.000001 10.147100 13.591616 -84.974821 0.878185 0.056929 -65.076936 1.135986 1.253144 -54.799841 -0.000000 -0.000000 -0.000001 8.601571 2.018884 -76.082351 -0.190613 1.016878 -58.892384 0.449648 1.746254 -53.991389 0.000001 0.000001 0.000002 7.911644 0.925697 -64.435643 1.831409 1.454521 -65.456250 0.119564 -0.907686 -44.193578 -0.000001 -0.000001 0.000004 14.075778 0.120030 -55.321636 0.379088 1.160308 -66.010165 2.004640 2.129752 -58.279552 -0.000000 -0.000000 -0.000001 3.518396 14.463839 19.553317 -33.569977 -8.872843 22.303032 14.417973 104.945747 -8.814727 4.647043 21.519875 -3.067220 13.690227 -0.410920 -17.988312 -2.706105 -31.430734 6.661508 -2.312391 -12.320943 1.555038 -0.000000 0.000002 0.000004 -0.718214 -5.583061 -4.827333 -0.158639 0.636183 26.138034 -3.745998 -0.734306 7.131204 -0.000003 -0.000001 0.000001 -2.760761 -5.582223 2.233339 0.271899 -5.194135 26.455216 -1.692648 3.599359 6.014905 -0.000003 0.000001 -0.000004 -10.774488 -9.307734 -1.386260 3.940494 -4.135867 24.154392 0.136227 -3.564683 0.064804 0.000001 0.000003 -0.000005 -15.446637 -7.940723 -8.638099 6.708873 -5.166779 33.967736 4.702351 -4.870975 2.536296 -0.000000 -0.000005 0.000003 -57.952290 8.877267 13.874608 40.546260 8.042917 -4.333371 -19.310289 -6.448131 -4.415638 -0.144255 0.005634 -0.307464 0.000000 0.000000 -0.000000 -71.350793 19.146323 1.723138 22.452177 0.840205 2.047964 13.024693 -5.263234 10.858146 -3.551794 -0.059674 0.588880 0.000000 -0.000000 -0.000000 
3.109915 82.001587 136.993195 36.912627 -14.824828 6.452820 26.460622 0.892270 -2.756109 5.593965 -0.362057 4.651916 5.391042 0.424073 4.446337 -0.721685 8.146863 -12.564089 -13.177975 2.089517 0.771851 -0.000001 -0.000000 -0.000000 8.680574 -15.907051 21.952725 -65.470956 11.909436 -19.363417 10.836307 -69.234069 12.251842 -70.457322 -20.902693 13.227627 17.551561 -5.699197 -12.932280 10.850535 26.127697 8.644754 20.926877 51.115876 0.218846 -0.000002 -0.000000 0.000001 10.148162 13.591136 -84.978598 0.878381 0.057005 -65.086293 1.135906 1.253173 -54.796156 0.000000 0.000003 -0.000000 8.602148 2.016455 -76.100069 -0.190439 1.016981 -58.910989 0.449765 1.746347 -53.999602 -0.000000 0.000000 0.000002 7.909261 0.904195 -64.443579 1.831896 1.454292 -65.472520 0.119316 -0.907472 -44.210370 0.000002 -0.000000 0.000004 14.074732 0.099709 -55.325437 0.379237 1.160416 -66.020731 2.004976 2.129576 -58.291327 -0.000001 -0.000002 0.000001 3.647842 14.416866 19.555482 -31.805561 -8.425820 23.283780 17.303548 99.318546 -12.149322 2.299816 22.404771 -0.045138 13.776729 -0.472382 -17.942936 -2.671778 -31.473355 6.683377 -2.224742 -12.529574 1.510850 0.000000 -0.000001 0.000002 -0.832261 -5.638880 -4.839199 -0.121335 0.524654 25.167615 -3.671065 -0.815539 7.574894 -0.000003 0.000000 0.000001 -2.747803 -5.605090 2.172787 0.300413 -5.189124 26.072692 -1.673911 3.550067 5.753395 0.000002 -0.000000 -0.000009 -10.653277 -9.323783 -1.615492 3.942057 -4.133537 23.872257 0.122288 -3.572311 0.503275 -0.000000 -0.000000 0.000000 -15.161353 -8.101508 -8.423874 6.918851 -5.020114 33.499073 4.743367 -4.828324 3.085423 0.000001 0.000001 0.000003 -58.489594 8.873949 13.904611 42.361291 8.115310 -4.391187 -19.622075 -6.371687 -4.297776 -0.144263 0.005632 -0.307464 0.000000 -0.000000 -0.000000 -72.435331 19.000726 2.021717 23.435065 1.691686 2.138650 14.552176 -5.275972 10.929261 -4.262960 -0.102176 0.751750 0.000000 0.000000 -0.000000 
3.365131 81.333954 136.267609 35.810255 -14.899072 6.619481 26.614442 0.551924 -2.912337 6.024410 -0.853037 4.665708 5.796154 -0.082695 4.520206 -0.431459 8.021541 -12.447058 -12.368347 2.414266 0.866063 -0.000001 -0.000000 -0.000000 8.441094 -16.391344 21.297338 -62.195368 15.280667 -21.336999 13.218527 -74.926820 15.304360 -68.115831 -19.500334 15.266675 17.551561 -5.699200 -12.932281 10.850537 26.127697 8.644753 20.926880 51.115869 0.218845 0.000000 -0.000003 -0.000003 10.149059 13.590787 -84.980770 0.878553 0.057026 -65.093895 1.135844 1.253142 -54.793748 0.000001 0.000000 -0.000002 8.602634 2.015074 -76.114597 -0.190348 1.017080 -58.926098 0.449867 1.746429 -54.006292 0.000001 0.000001 0.000002 7.906963 0.885695 -64.449146 1.832249 1.454109 -65.485832 0.119138 -0.907266 -44.224017 0.000001 -0.000001 0.000009 14.073782 0.083595 -55.327080 0.379367 1.160531 -66.029413 2.005285 2.129430 -58.300958 -0.000002 -0.000002 0.000001 3.772446 14.360281 19.555112 -30.390384 -8.214300 24.138338 32.084438 92.819867 -27.322632 -0.278351 23.076877 3.088316 13.847575 -0.523204 -17.905894 -2.640297 -31.513229 6.702181 -2.178227 -12.648653 1.481024 -0.000001 -0.000002 0.000002 -0.942808 -5.693504 -4.816708 -0.091721 0.427353 24.359159 -3.603955 -0.885862 7.894072 -0.000000 0.000000 0.000001 -2.735028 -5.624518 2.143642 0.324042 -5.184248 25.767075 -1.659726 3.506137 5.560591 -0.000000 0.000002 -0.000004 -10.545453 -9.340049 -1.781632 3.943884 -4.130859 23.661797 0.117149 -3.578035 0.839635 -0.000003 -0.000001 -0.000007 -14.908040 -8.238433 -8.210903 7.104898 -4.888544 33.126660 4.770067 -4.799141 3.498736 0.000002 -0.000001 0.000004 -58.695005 8.939730 13.636094 44.013664 8.106281 -4.395451 -19.954191 -6.318907 -4.155758 -0.144245 0.005625 -0.307463 0.000000 -0.000000 0.000000 -73.353343 18.995757 2.093288 24.878472 2.441078 2.250888 15.758520 -5.336070 11.016371 -5.046903 -0.145765 0.918813 0.000000 -0.000000 -0.000000 
3.602276 80.658684 135.701340 34.692740 -14.870683 6.783710 26.721198 0.277041 -3.019157 6.329129 -1.236958 4.668806 6.086577 -0.473994 4.571435 -0.611165 8.049707 -12.280996 -12.123613 2.610001 0.961954 -0.000001 -0.000000 0.000000 8.129108 -16.768792 20.514349 -58.481890 18.580734 -24.001894 20.087050 -81.147907 22.798700 -65.540521 -18.020921 17.411076 17.551563 -5.699199 -12.932282 10.850527 26.127687 8.644754 20.926875 51.115869 0.218844 -0.000002 0.000001 -0.000002 10.149832 13.590468 -84.982546 0.878722 0.057068 -65.100719 1.135809 1.253143 -54.792249 -0.000001 -0.000003 0.000001 8.603042 2.013946 -76.126686 -0.190242 1.017163 -58.938618 0.449978 1.746479 -54.011995 -0.000002 0.000001 0.000002 7.904246 0.869313 -64.453811 1.832537 1.453949 -65.496753 0.118955 -0.907111 -44.235263 0.000001 -0.000000 0.000008 14.072905 0.070219 -55.328125 0.379471 1.160650 -66.036577 2.005535 2.129297 -58.308840 -0.000001 0.000001 0.000001 3.895071 14.294252 19.550822 -29.254291 -8.006748 24.826718 0.866767 85.443194 3.628461 -2.826201 23.668419 6.120063 13.904978 -0.564548 -17.875853 -2.610440 -31.552349 6.718477 -2.162525 -12.693876 1.465613 -0.000000 -0.000001 -0.000001 -1.056392 -5.749017 -4.763578 -0.066821 0.341822 23.680732 -3.543175 -0.947487 8.111503 -0.000002 -0.000003 -0.000001 -2.722691 -5.641538 2.139923 0.343377 -5.179306 25.525441 -1.649016 3.467927 5.423003 0.000001 -0.000001 -0.000009 -10.450170 -9.357312 -1.900768 3.945916 -4.128278 23.507100 0.115854 -3.582325 1.089862 0.000001 0.000002 -0.000003 -14.680021 -8.355280 -8.008836 7.273542 -4.767011 32.831213 4.785868 -4.781740 3.800616 0.000001 -0.000001 0.000000 -58.738063 9.037997 13.253882 45.586936 8.069107 -4.376865 -20.370740 -6.268369 -4.021633 -0.144242 0.005630 -0.307461 0.000000 -0.000000 0.000000 -74.229792 19.062315 2.093359 26.764117 3.146660 2.361788 16.257631 -5.493187 11.087589 -5.863273 -0.187365 1.079611 -0.000000 -0.000000 0.000000 
